<?xml version="1.0" encoding="utf-8"?>
<!-- Generator: Adobe Illustrator 21.0.0, SVG Export Plug-In . SVG Version: 6.00 Build 0)  -->
<svg version="1.1" id="Layer_1" xmlns="http://www.w3.org/2000/svg" xmlns:xlink="http://www.w3.org/1999/xlink" x="0px" y="0px"
	 viewBox="0 0 401 78" style="enable-background:new 0 0 401 78;" xml:space="preserve">
<style type="text/css">
	.st0{fill:#FFFFFF;}
	.st1{fill:#553795;}
</style>
<g>
	<rect x="61.2" y="26.1" width="137.1" height="18.1"/>
	<g>
		<path class="st0" d="M76.1,29.6h1.2v10.9h-1.2l-6.5-8.9v8.9h-1.2V29.6h1.2l6.5,8.9V29.6z"/>
		<path class="st0" d="M97.3,38c0,1.7-1.1,2.7-2.8,2.7h-3.9c-1.7,0-2.8-1-2.8-2.7v-5.9c0-1.7,1.1-2.7,2.8-2.7h3.9
			c1.7,0,2.8,1,2.8,2.7V38z M96,32.4c0-1.1-0.7-1.8-1.9-1.8h-3.4c-1.2,0-1.9,0.7-1.9,1.8v5.5c0,1.1,0.7,1.8,1.9,1.8h3.4
			c1.2,0,1.9-0.7,1.9-1.8V32.4z"/>
		<path class="st0" d="M107.7,29.6h7.6v1.1H109v3.7h5.3v1.1H109v5h-1.2V29.6z"/>
		<path class="st0" d="M134.2,40.6h-1.4l-2.4-4.5h-4.1v4.5h-1.2V29.6h6c1.7,0,2.8,1,2.8,2.7v1.1c0,1.5-0.9,2.4-2.3,2.6L134.2,40.6z
			 M126.3,30.7V35h4.6c1.2,0,1.9-0.7,1.9-1.8v-0.7c0-1.1-0.7-1.8-1.9-1.8H126.3z"/>
		<path class="st0" d="M144.5,40.6h-1.4l4.8-10.9h1.3l4.8,10.9h-1.3l-1.6-3.6h-5L144.5,40.6z M148.5,31.1l-2.1,4.9h4.2L148.5,31.1z"
			/>
		<path class="st0" d="M173.2,29.6h1.2v10.9h-1.2v-8.9l-3.5,4.9h-1.1l-3.5-4.9v8.9h-1.2V29.6h1.2l4.1,5.8L173.2,29.6z"/>
		<path class="st0" d="M193.4,39.5v1.1h-7.8V29.6h7.8v1.1h-6.6v3.7h5.5v1.1h-5.5v4H193.4z"/>
	</g>
	<rect x="198.2" y="25.4" class="st1" width="143.6" height="19.4"/>
	<g>
		<path class="st0" d="M205,30h5.2c1.6,0,2.6,0.9,2.6,2.5v1.1c0,1.6-1,2.5-2.6,2.5h-4.4v4.2H205V30z M212,32.6
			c0-1.1-0.7-1.8-1.9-1.8h-4.3v4.6h4.3c1.2,0,1.9-0.7,1.9-1.8V32.6z"/>
		<path class="st0" d="M223.8,30h0.8v10.3h-0.8v-5h-6.5v5h-0.8V30h0.8v4.5h6.5V30z"/>
		<path class="st0" d="M237.7,37.9c0,1.6-1,2.5-2.6,2.5h-3.7c-1.6,0-2.6-0.9-2.6-2.5v-5.6c0-1.6,1-2.5,2.6-2.5h3.7
			c1.6,0,2.6,0.9,2.6,2.5V37.9z M236.9,32.4c0-1.1-0.7-1.8-1.9-1.8h-3.4c-1.2,0-1.9,0.7-1.9,1.8v5.4c0,1.1,0.7,1.8,1.9,1.8h3.4
			c1.2,0,1.9-0.7,1.9-1.8V32.4z"/>
		<path class="st0" d="M240.5,30h8.7v0.8h-3.9v9.5h-0.8v-9.5h-3.9V30z"/>
		<path class="st0" d="M260.8,37.9c0,1.6-1,2.5-2.6,2.5h-3.7c-1.6,0-2.6-0.9-2.6-2.5v-5.6c0-1.6,1-2.5,2.6-2.5h3.7
			c1.6,0,2.6,0.9,2.6,2.5V37.9z M260,32.4c0-1.1-0.7-1.8-1.9-1.8h-3.4c-1.2,0-1.9,0.7-1.9,1.8v5.4c0,1.1,0.7,1.8,1.9,1.8h3.4
			c1.2,0,1.9-0.7,1.9-1.8V32.4z"/>
		<path class="st0" d="M270.7,29.8c0.9,0,1.6,0.2,2.2,0.7l-0.4,0.6c-0.5-0.4-1.1-0.5-1.9-0.5h-3.4c-1.2,0-1.9,0.7-1.9,1.8v5.4
			c0,1.1,0.7,1.8,1.9,1.8h2.3c0.5,0,1.1-0.2,1.6-0.6l1.1-0.9v-2.5h-3.3v-0.7h4.2v5.3h-0.8v-1.1l-0.7,0.6c-0.6,0.5-1.2,0.7-1.8,0.7
			h-2.6c-1.6,0-2.6-0.9-2.6-2.5v-5.6c0-1.6,1-2.5,2.6-2.5H270.7z"/>
		<path class="st0" d="M285.4,40.2h-1l-2.4-4.3h-4.1v4.3h-0.8V30h5.6c1.6,0,2.6,0.9,2.6,2.5v0.9c0,1.5-0.8,2.3-2.3,2.4L285.4,40.2z
			 M277.9,30.7v4.4h4.6c1.2,0,1.9-0.7,1.9-1.9v-0.7c0-1.1-0.7-1.8-1.9-1.8H277.9z"/>
		<path class="st0" d="M289.2,40.2h-0.9l4.5-10.3h0.9l4.5,10.3h-0.9l-1.5-3.5h-5L289.2,40.2z M293.2,31l-2.2,5h4.4L293.2,31z"/>
		<path class="st0" d="M301.8,30h5.2c1.6,0,2.6,0.9,2.6,2.5v1.1c0,1.6-1,2.5-2.6,2.5h-4.4v4.2h-0.8V30z M308.8,32.6
			c0-1.1-0.7-1.8-1.9-1.8h-4.3v4.6h4.3c1.2,0,1.9-0.7,1.9-1.8V32.6z"/>
		<path class="st0" d="M320.6,30h0.8v10.3h-0.8v-5h-6.5v5h-0.8V30h0.8v4.5h6.5V30z"/>
		<path class="st0" d="M334.3,30l-4.3,6.1v4.2h-0.8V36l-4.3-6.1h1l3.7,5.4l3.7-5.4H334.3z"/>
	</g>
</g>
</svg>
